<svg width="118" height="115" viewBox="0 0 118 115" fill="none" xmlns="http://www.w3.org/2000/svg">
<path fill-rule="evenodd" clip-rule="evenodd" d="M37.6133 90.2763C25.485 89.63 20.9242 85.4721 14.0708 75.8845C7.72725 63.9105 6.15212 57.4643 6.87749 46.4468C9.68742 30.0257 13.218 24.1989 20.6103 15.7001C33.6359 3.49132 42.0301 0.630884 57.886 0C81.3382 0.430576 87.5246 5.48315 97.6623 13.7638C97.916 13.9712 98.1724 14.1804 98.4314 14.3918C88.6521 8.52753 82.7717 5.70347 69.0032 5.23325C58.1423 6.02074 52.7681 7.885 44.1528 15.7001C39.1344 21.7828 37.4746 25.6738 36.3053 33.3633V34.045C35.981 34.0266 35.654 34.0175 35.3244 34.0175C26.1154 34.0175 18.6485 41.4855 18.6485 50.6989C18.6485 59.9109 26.1154 67.3803 35.3244 67.3803C35.654 67.3803 35.981 67.3698 36.3053 67.3515V68.0344L37.6133 90.2763ZM49.3845 50.6989C49.3845 58.4665 43.0895 64.7636 35.3244 64.7636C27.5593 64.7636 21.2643 58.4665 21.2643 50.6989C21.2643 42.9299 27.5593 36.6342 35.3244 36.6342C43.0895 36.6342 49.3845 42.9299 49.3845 50.6989ZM42.7939 22.8429C49.4172 12.659 55.2963 10.7867 67.0244 9.64381C80.5626 10.135 86.9308 11.9932 96.1072 18.1308C108.918 28.7752 112.197 34.7475 115.858 45.4014C119.915 62.7893 118.195 71.4911 110.813 85.5427C98.7139 105.645 91.247 108.478 79.0088 113.12C78.7027 113.236 78.3928 113.353 78.0802 113.472C88.0478 107.932 93.4325 104.249 100.724 92.5581C105.472 82.7546 106.546 77.1667 104.087 65.7959C101.331 58.4063 98.7923 55.023 92.7197 50.1664L92.1285 49.8249C92.3077 49.5528 92.479 49.2754 92.6438 48.9889C97.249 41.0106 94.5168 30.8081 86.5398 26.2024C78.5641 21.5958 68.365 24.3296 63.7598 32.3075C63.5963 32.594 63.4407 32.8818 63.2942 33.1723L62.703 32.8308L42.7939 22.8429ZM71.1718 52.8289C64.4478 48.9457 62.1432 40.3433 66.0264 33.6158C69.9083 26.8894 78.5079 24.5846 85.2319 28.4684C91.9572 32.352 94.2617 40.9543 90.3785 47.6805C86.4966 54.408 77.8971 56.7133 71.1718 52.8289ZM97.474 88.7011C102.349 77.9687 103.668 71.9399 98.1619 61.1094L79.5607 73.3633L78.9696 73.7048C79.1487 73.9769 79.3201 74.2556 79.4849 74.5409C84.09 82.5191 81.3565 92.7216 73.3808 97.3283C65.4052 101.935 55.206 99.2005 50.6009 91.2222C50.4361 90.937 50.2817 90.6492 50.1353 90.3587L49.5441 90.6989C42.3034 93.5315 38.105 94.0391 30.3295 92.7321C19.2567 89.176 14.9549 85.4524 8.84264 76.438C2.36571 64.2756 1.87026 57.7692 2.05742 46.3643C2.00406 46.694 1.95096 47.0211 1.89838 47.3443C-0.201475 60.2681 -1.48284 68.1535 9.87052 88.6854C18.345 102.106 25.018 107.948 42.1007 113.128C53.1552 115.283 59.9642 115.428 75.586 109.652C85.4869 104.77 90.2804 100.183 97.474 88.7011ZM77.2196 75.8492C73.3364 69.1217 64.7381 66.8177 58.0128 70.7009C51.2875 74.5853 48.9843 83.1864 52.8662 89.9139C56.7494 96.6414 65.3476 98.9454 72.0729 95.0622C78.7982 91.1778 81.1015 82.5767 77.2196 75.8492Z" fill="url(#paint0_linear_15_46)"/>
<defs>
<linearGradient id="paint0_linear_15_46" x1="92.054" y1="104.668" x2="20.0906" y2="17.6858" gradientUnits="userSpaceOnUse">
<stop stop-color="#FF0000"/>
<stop offset="0.223958" stop-color="#D0086F"/>
<stop offset="0.484375" stop-color="#A30FD8"/>
<stop offset="0.666667" stop-color="#6308E0"/>
<stop offset="0.895833" stop-color="#2001E9"/>
<stop offset="1" stop-color="#2001E9"/>
</linearGradient>
</defs>
</svg>
