<svg width="155" height="42" viewBox="0 0 155 42" fill="none" xmlns="http://www.w3.org/2000/svg">
<rect width="155" height="42" fill="white"/>
<path fill-rule="evenodd" clip-rule="evenodd" d="M91.6126 7.82983H89.9526C89.1026 7.82983 88.5096 8.40238 88.5096 9.2221V30.3457H81.6056C77.3356 30.3457 75.6036 30.084 75.6036 23.5002V9.22017C75.6036 8.40142 75.0106 7.82983 74.1616 7.82983H72.5486C71.6996 7.82983 71.0586 8.42652 71.0586 9.22017V23.5002C71.0586 32.856 74.5666 34.5022 81.9386 34.5022C84.5896 34.5022 88.2216 34.5022 91.6846 34.0311L91.7646 34.0156C92.6196 33.809 93.0546 33.3349 93.0546 32.6079V9.2221C93.0546 8.40142 92.4616 7.82983 91.6126 7.82983ZM111.541 7.88004L111.428 7.85107C110.455 7.65314 107.796 7.50928 106.476 7.50928C101.81 7.50928 99.3426 9.39879 99.3426 12.9741V32.8831C99.3426 33.7028 99.9356 34.2753 100.786 34.2753H102.446C103.296 34.2753 103.889 33.7028 103.889 32.8821V13.34C103.889 12.4585 104.119 11.6658 106.904 11.6658L111.026 11.662C111.43 11.7093 111.816 11.6011 112.112 11.3588C112.436 11.0942 112.614 10.709 112.614 10.2745V9.26748C112.614 8.6061 112.223 8.10017 111.541 7.88004Z" fill="#272727"/>
<mask id="mask0_219_5" style="mask-type:luminance" maskUnits="userSpaceOnUse" x="114" y="7" width="22" height="28">
<path d="M114.326 7.50928H135.988V34.5051H114.326V7.50928Z" fill="white"/>
</mask>
<g mask="url(#mask0_219_5)">
<path fill-rule="evenodd" clip-rule="evenodd" d="M125.301 7.50928C120.523 7.50928 117.822 8.40142 116.271 10.4927C114.654 12.6787 114.328 16.1285 114.328 20.985C114.328 30.5195 115.853 34.5061 125.302 34.5061C126.437 34.5061 130.316 34.4839 132.582 34.2174C133.462 34.0755 133.858 33.4228 133.858 32.8387V31.7862C133.858 30.9656 133.217 30.3476 132.368 30.3476H125.302C119.97 30.3476 119.01 29.132 118.872 22.2199V19.9847C118.918 12.9113 119.879 11.6678 125.302 11.6678C130.303 11.6678 131.261 12.7713 131.427 18.998H123.481V23.1999H133.931C135.989 23.1999 135.989 21.8086 135.989 21.3519V20.0089C135.841 10.3131 133.443 7.50928 125.301 7.50928Z" fill="#272727"/>
</g>
<path fill-rule="evenodd" clip-rule="evenodd" d="M65.9378 8.48345C65.7238 8.0451 65.2678 7.78345 64.7148 7.78345H62.5808C61.9608 7.78345 61.4988 8.02483 61.2548 8.45931L58.0918 12.9297L60.8608 16.5919L65.6938 9.88538C66.2248 9.26069 66.0408 8.69779 65.9378 8.48345Z" fill="#74BB11"/>
<path fill-rule="evenodd" clip-rule="evenodd" d="M49.2669 8.40911L49.2639 8.40525C48.7819 7.78442 48.1409 7.78442 47.9299 7.78442H45.8429C45.3079 7.78442 44.8709 8.02098 44.6409 8.43518C44.4059 8.85808 44.4559 9.36787 44.7809 9.84001L52.5129 20.2077L43.6229 32.2024C43.3119 32.6533 43.2679 33.1553 43.5029 33.5782C43.7329 33.9924 44.1709 34.229 44.7049 34.229H46.8389C47.3869 34.229 47.8689 33.9538 48.1099 33.5193L58.0609 20.255L49.2669 8.40911Z" fill="#009CD9"/>
<path fill-rule="evenodd" clip-rule="evenodd" d="M67.0236 32.5616L61.6376 25.4167L59.2676 28.574L63.5276 34.0678L63.6376 34.1161C63.8216 34.1923 63.9976 34.229 64.1756 34.229H65.9866C66.4246 34.229 66.7966 34.0407 67.0066 33.7134C67.2226 33.3755 67.2276 32.9574 67.0236 32.5616Z" fill="#EB2084"/>
<mask id="mask1_219_5" style="mask-type:luminance" maskUnits="userSpaceOnUse" x="19" y="7" width="21" height="28">
<path d="M19.0098 7.49487H39.9618V34.4907H19.0098V7.49487Z" fill="white"/>
</mask>
<g mask="url(#mask1_219_5)">
<path fill-rule="evenodd" clip-rule="evenodd" d="M35.4168 23.002V29.9953C33.3048 30.3091 30.0848 30.3786 28.9868 30.3786C24.1328 30.3786 23.6018 29.0944 23.6018 26.3707C23.6018 23.8218 24.5878 23.002 27.6598 23.002H35.4168ZM28.7508 7.49583C27.2508 7.49583 25.2048 7.53252 22.6608 7.82893L22.5458 7.85307C21.8038 8.05776 21.4278 8.52893 21.4278 9.25307V10.2601C21.4278 11.1194 21.9808 11.6524 22.8698 11.6524H28.7498C33.4858 11.6524 35.4168 12.8931 35.4168 15.9354V18.8918H27.6598C21.5968 18.8918 19.0098 21.127 19.0098 26.3707C19.0098 32.2131 21.6868 34.4907 28.5598 34.4907C31.3448 34.4907 36.4698 34.2812 38.3638 33.7231C39.9618 33.2935 39.9618 32.1136 39.9618 31.7245V15.6602C39.9618 10.1645 36.2948 7.4939 28.7508 7.4939V7.49583Z" fill="#272727"/>
</g>
</svg>
