<svg width="409" height="88" viewBox="0 0 409 88" fill="none" xmlns="http://www.w3.org/2000/svg">
<path fill-rule="evenodd" clip-rule="evenodd" d="M28.5784 69.3827C19.2392 68.8859 15.7273 65.6903 10.4499 58.3217C5.56522 49.119 4.35232 44.1647 4.91088 35.6971C7.07461 23.0765 9.79329 18.5983 15.4856 12.0665C25.5157 2.68328 31.9795 0.484871 44.1891 0C62.2481 0.330923 67.0118 4.21412 74.8182 10.5783C75.0136 10.7377 75.211 10.8984 75.4104 11.0609C67.88 6.55391 63.3519 4.38345 52.7498 4.02206C44.3865 4.6273 40.2481 6.06009 33.6141 12.0665C29.7497 16.7413 28.4717 19.7318 27.5713 25.6417V26.1656C27.3215 26.1515 27.0697 26.1444 26.8159 26.1444C19.7247 26.1444 13.9749 31.8841 13.9749 38.9651C13.9749 46.0451 19.7247 51.7857 26.8159 51.7857C27.0697 51.7857 27.3215 51.7777 27.5713 51.7636V52.2885L28.5784 69.3827ZM37.6427 38.9651C37.6427 44.935 32.7953 49.7746 26.8159 49.7746C20.8366 49.7746 15.9892 44.935 15.9892 38.9651C15.9892 32.9942 20.8366 28.1555 26.8159 28.1555C32.7953 28.1555 37.6427 32.9942 37.6427 38.9651ZM32.5677 17.5561C37.6679 9.72921 42.1949 8.29018 51.226 7.41184C61.6508 7.78932 66.5546 9.21749 73.6207 13.9346C83.4856 22.1155 86.0105 26.7055 88.8295 34.8937C91.9536 48.2573 90.6292 54.9451 84.9449 65.7446C75.6279 81.1948 69.8782 83.3717 60.4544 86.9394C60.2187 87.0289 59.98 87.1184 59.7393 87.2099C67.4147 82.9524 71.5611 80.1218 77.1759 71.1363C80.8318 63.6018 81.6587 59.3072 79.7652 50.568C77.6432 44.8887 75.6883 42.2884 71.0122 38.5558L70.557 38.2934C70.6949 38.0842 70.8269 37.8711 70.9538 37.6508C74.4999 31.5191 72.396 23.6779 66.2535 20.1381C60.1119 16.5976 52.2583 18.6987 48.7121 24.8302C48.5862 25.0504 48.4664 25.2716 48.3536 25.4949L47.8984 25.2324L32.5677 17.5561ZM54.4196 40.6021C49.2419 37.6177 47.4673 31.0062 50.4575 25.8357C53.4467 20.6661 60.0686 18.8947 65.2463 21.8797C70.425 24.8644 72.1996 31.4758 69.2094 36.6453C66.2202 41.8158 59.5983 43.5876 54.4196 40.6021ZM74.6732 68.172C78.4268 59.9236 79.443 55.29 75.2029 46.9662L60.8794 56.384L60.4241 56.6465C60.5621 56.8556 60.6941 57.0698 60.821 57.289C64.3671 63.4208 62.2622 71.262 56.1206 74.8025C49.9791 78.343 42.1254 76.2415 38.5793 70.1097C38.4524 69.8905 38.3336 69.6693 38.2208 69.446L37.7655 69.7075C32.19 71.8844 28.9571 72.2746 22.9697 71.2701C14.4432 68.537 11.1308 65.6752 6.42411 58.7471C1.43666 49.3996 1.05515 44.399 1.19927 35.6337C1.15818 35.8871 1.11729 36.1385 1.0768 36.3869C-0.540159 46.3196 -1.52685 52.38 7.21561 68.1599C13.7413 78.4748 18.8797 82.9645 32.0339 86.9454C40.5463 88.6016 45.7894 88.7132 57.8187 84.2737C65.4427 80.522 69.1339 76.9966 74.6732 68.172ZM59.0766 58.2946C56.0864 53.1241 49.4655 51.3533 44.2868 54.3378C39.1081 57.3232 37.3345 63.9337 40.3237 69.1041C43.3139 74.2746 49.9348 76.0454 55.1135 73.0609C60.2922 70.0755 62.0658 63.4651 59.0766 58.2946Z" fill="white"/>
<path d="M361.403 55.3733L361.432 53.6733L369.897 44.4869C371.002 43.2815 371.893 42.2502 372.57 41.3932C373.247 40.5361 373.74 39.7421 374.051 39.011C374.37 38.2801 374.536 37.5176 374.55 36.7234C374.567 35.7555 374.354 34.9078 373.912 34.1801C373.478 33.4444 372.872 32.8669 372.093 32.4479C371.314 32.0288 370.432 31.8107 369.448 31.7935C368.406 31.7753 367.488 31.9827 366.694 32.4157C365.909 32.8488 365.294 33.4505 364.85 34.2206C364.406 34.9907 364.176 35.8803 364.158 36.8896L361.937 36.8508C361.962 35.4445 362.306 34.2051 362.97 33.1327C363.643 32.0521 364.547 31.2115 365.683 30.6107C366.827 30.01 368.115 29.7222 369.546 29.7471C370.96 29.7718 372.212 30.0999 373.302 30.7312C374.392 31.3543 375.242 32.1925 375.852 33.2458C376.463 34.2991 376.757 35.471 376.734 36.7615C376.718 37.6963 376.537 38.5993 376.19 39.4704C375.853 40.3416 375.277 41.308 374.464 42.3696C373.651 43.4311 372.528 44.7273 371.095 46.2579L364.668 53.1836L364.665 53.3449L377.235 53.5643L377.199 55.649L361.403 55.3733ZM384.816 50.3205L384.849 48.4344L396.494 30.5651L397.883 30.5893L397.828 33.7535L396.798 33.7356L387.449 48.1198L387.446 48.2811L402.299 48.5404L402.263 50.625L384.816 50.3205ZM396.584 55.9874L396.689 49.9319L396.705 49.0633L397.027 30.5744L399.236 30.6129L398.792 56.0259L396.584 55.9874Z" fill="white"/>
<path d="M350.098 25.4282V25.6685V26.1492C350.098 26.5898 350.078 27.0904 350.038 27.6512V29.1532V29.6939V29.8742H347.875V29.6339V29.1532V27.6512C347.915 27.0904 347.935 26.5898 347.935 26.1492V25.6685V25.4282H350.098Z" fill="white"/>
<path d="M311.458 25.4282H314.041C314.562 26.2693 314.943 26.8702 315.183 27.2306C315.744 28.1118 316.425 29.1732 317.226 30.4149L322.272 38.4056L327.379 30.475C328.14 29.1933 328.821 28.1118 329.422 27.2306L330.564 25.4282H333.087C332.326 26.6298 331.885 27.3107 331.765 27.471L331.224 28.3722C330.664 29.2534 329.983 30.3348 329.182 31.6165C328.14 33.2587 326.218 36.2427 323.414 40.5685V42.3109C323.454 43.913 323.474 45.6954 323.474 47.658V53.0653V54.8677V55.3484V55.5286H321.311V55.3484V54.8677V53.0653V47.658C321.311 45.6954 321.291 43.913 321.251 42.3109V40.8689C320.73 40.0278 319.729 38.4257 318.247 36.0625C316.765 33.6993 315.824 32.2173 315.423 31.6165C314.622 30.3348 313.941 29.2534 313.38 28.3722L312.78 27.471L311.458 25.4282Z" fill="white"/>
<path d="M286.747 39.1868H287.227H288.609C289.811 39.2268 291.152 39.2469 292.634 39.2469H296.72H298.042H298.582V40.5686C298.663 45.4151 297.341 49.2603 294.617 52.1041C291.893 54.9479 288.108 56.3698 283.262 56.3698C278.656 56.4099 274.831 54.9679 271.786 52.044C268.742 49.0801 267.18 45.295 267.1 40.6888C267.02 36.2829 268.462 32.618 271.426 29.6941C274.39 26.7301 278.155 25.2281 282.721 25.188H282.781L291.493 25.1279H291.553L291.493 27.3509H289.931H282.781C278.776 27.391 275.491 28.6727 272.928 31.1961C270.405 33.7194 269.183 36.8837 269.263 40.6888C269.343 44.6942 270.685 47.9585 273.289 50.4819C275.892 53.0053 279.216 54.247 283.262 54.2069C287.588 54.2069 290.912 52.9452 293.235 50.4219C295.318 48.0987 296.379 45.0947 296.42 41.4098H292.634C291.152 41.4098 289.791 41.3897 288.549 41.3497H287.227H286.747V39.1868Z" fill="white"/>
<path d="M243.244 27.5311V30.1746V37.9851C247.009 37.945 249.713 37.2841 251.355 36.0024C252.516 35.1212 253.097 33.9597 253.097 32.5177C253.097 31.957 252.937 31.2961 252.617 30.5351C252.176 29.6539 251.575 29.013 250.814 28.6125C249.933 28.1319 248.551 27.8114 246.669 27.6512C245.387 27.5711 244.245 27.5311 243.244 27.5311ZM252.797 55.4685C252.276 54.2269 251.735 52.9451 251.175 51.6234C249.252 47.1774 247.49 43.2922 245.888 39.9677C245.127 40.0879 244.245 40.148 243.244 40.148V40.5085V50.8423V54.2068V55.1681V55.5286H241.081V55.1681V54.2068V50.8423V40.5085V30.1746V27.5311C240.881 27.5311 240.54 27.5511 240.06 27.5911C239.619 27.5911 239.279 27.5911 239.038 27.5911V30.1145V40.4484C239.038 44.2134 239.058 47.658 239.098 50.7822V54.1467V55.108V55.4685H236.936V55.108V54.1467V50.7822C236.895 47.658 236.875 44.2134 236.875 40.4484V30.1145V26.6899V25.7887V25.4282H238.798C242.643 25.3882 245.307 25.4082 246.789 25.4883C249.032 25.6485 250.714 26.0491 251.836 26.6899C253.037 27.4109 253.938 28.3722 254.539 29.5738C255.02 30.5751 255.26 31.5765 255.26 32.5778C255.26 34.7407 254.399 36.463 252.677 37.7447C251.635 38.5458 250.213 39.1667 248.411 39.6072L251.415 46.4564L253.277 50.7822L254.779 54.2068C254.94 54.5673 255.06 54.8877 255.14 55.1681L255.32 55.4685H252.797Z" fill="white"/>
<path d="M207.244 25.4282H207.485H208.026H210.068H216.317H222.565H224.608H225.209H225.389V27.5911H225.209H224.608H222.565H216.317H210.068H209.407V28.4323V34.921V39.1867H210.188H216.377H222.505H224.548H225.088H225.329V41.3496H225.088H224.548H222.505H216.377H210.188H209.407V41.4097V43.0919V43.2121V44.654V49.0399V53.3056H210.068H216.257H222.445H224.488H225.088H225.269V55.4685H225.088H224.488H222.445H216.257H210.068H208.026H207.485H207.244V53.3056V49.0399V44.654V44.4137V44.1734V43.5726V41.4097V34.921V28.4323V27.5911V26.2693V25.6685V25.4282Z" fill="white"/>
<path d="M173.684 30.8958L175.606 32.9385C175.767 33.1388 175.967 33.3791 176.207 33.6595C176.808 34.3003 177.529 35.1014 178.37 36.0627C180.333 38.2657 182.516 40.6889 184.919 43.3325C187.282 45.976 189.445 48.3992 191.408 50.6022C192.249 51.5635 192.97 52.3646 193.57 53.0054C193.811 53.2858 194.011 53.5061 194.171 53.6663L195.914 55.4687H192.849L192.549 55.1082C192.389 54.948 192.189 54.7277 191.948 54.4474C191.347 53.8065 190.627 53.0054 189.785 52.0441C187.823 49.8412 185.66 47.4179 183.297 44.7744C180.893 42.1308 178.711 39.7076 176.748 37.5046L175.847 36.4833V37.3244V44.7143V52.1042V54.5675V55.2284V55.4687H173.684V55.2284V54.5675V52.1042V44.7143V37.3244V34.9212V34.2002V33.9599V30.8958ZM195.854 25.4284V25.6087V26.2696V28.6728V35.8224C195.854 37.1842 195.833 38.4659 195.793 39.6675C195.793 40.8291 195.793 41.9306 195.793 42.972V45.3151V45.976V50.3619V51.5034L192.549 47.7183C192.389 47.5581 192.189 47.3378 191.948 47.0574L189.845 44.6542C187.843 42.4513 185.66 40.028 183.297 37.3845C180.934 34.7009 178.751 32.2576 176.748 30.0546C175.907 29.1334 175.186 28.3323 174.585 27.6514C174.345 27.4111 174.144 27.1908 173.984 26.9905L173.684 26.6301V23.5059L175.606 25.5486C175.767 25.7489 175.967 25.9692 176.207 26.2095C176.808 26.8904 177.529 27.6915 178.37 28.6127C180.333 30.8157 182.516 33.2589 184.919 35.9425C187.282 38.5861 189.445 41.0093 191.408 43.2123C192.249 44.1335 192.97 44.9346 193.57 45.6155L193.631 45.6756V45.3151V42.972C193.631 41.9306 193.631 40.8291 193.631 39.6675C193.671 38.4659 193.691 37.1842 193.691 35.8224V28.6728V26.2696V25.6087V25.4284H195.854Z" fill="white"/>
<path d="M140.655 25.4282H143.239C143.76 26.2693 144.14 26.8702 144.38 27.2306C144.941 28.1118 145.622 29.1732 146.423 30.4149L151.47 38.4056L156.577 30.475C157.338 29.1933 158.019 28.1118 158.62 27.2306L159.761 25.4282H162.284C161.523 26.6298 161.083 27.3107 160.963 27.471L160.422 28.3722C159.861 29.2534 159.18 30.3348 158.379 31.6165C157.338 33.2587 155.415 36.2427 152.611 40.5685V42.3109C152.652 43.913 152.672 45.6954 152.672 47.658V53.0653V54.8677V55.3484V55.5286H150.509V55.3484V54.8677V53.0653V47.658C150.509 45.6954 150.489 43.913 150.449 42.3109V40.8689C149.928 40.0278 148.927 38.4257 147.445 36.0625C145.963 33.6993 145.021 32.2173 144.621 31.6165C143.82 30.3348 143.139 29.2534 142.578 28.3722L141.977 27.471L140.655 25.4282Z" fill="white"/>
<path d="M126.981 34.6808C126.861 32.1975 125.639 30.0746 123.316 28.3123C121.834 27.2709 119.892 26.8102 117.488 26.9304C115.165 27.1307 113.243 27.7916 111.721 28.9131C110.078 30.1547 109.137 31.7368 108.897 33.6594C108.576 35.9425 109.438 37.9652 111.48 39.7276C112.041 40.2883 112.802 40.7289 113.763 41.0493C114.324 41.2496 115.245 41.51 116.527 41.8304C116.647 41.8304 116.767 41.8504 116.888 41.8905C118.45 42.2509 119.671 42.5914 120.552 42.9118C121.994 43.5527 123.136 44.3938 123.977 45.4352L122.295 46.757C121.614 45.996 120.773 45.3952 119.771 44.9546C119.251 44.7543 118.149 44.4339 116.467 43.9933C116.387 43.9933 116.307 43.9733 116.227 43.9332H116.106C114.624 43.6128 113.603 43.3324 113.042 43.0921C111.841 42.6515 110.839 42.0707 110.038 41.3497C107.395 39.0667 106.293 36.4031 106.734 33.359C107.094 30.8356 108.316 28.7729 110.399 27.1707C112.361 25.7288 114.665 24.9477 117.308 24.8276C120.312 24.6273 122.735 25.2081 124.578 26.5699C127.502 28.7328 129.024 31.3964 129.144 34.5606L126.981 34.6808ZM107.515 46.8171C107.595 49.2604 108.817 51.3832 111.18 53.1856C112.582 54.2671 114.504 54.7477 116.948 54.6275C119.311 54.5074 121.233 53.8665 122.715 52.705C124.358 51.5034 125.339 49.9613 125.659 48.0788C126.06 45.8358 125.199 43.753 123.076 41.8304C122.475 41.3097 121.694 40.8491 120.733 40.4485C120.132 40.2082 119.191 39.9479 117.909 39.6675C117.829 39.6675 117.729 39.6475 117.608 39.6074C116.086 39.287 114.865 38.9465 113.944 38.586C112.622 38.0253 111.5 37.2042 110.579 36.1227L112.321 34.7409C112.842 35.4618 113.663 36.0827 114.785 36.6034C115.386 36.8437 116.487 37.1441 118.089 37.5046C118.209 37.5446 118.289 37.5647 118.329 37.5647C119.411 37.805 120.472 38.0854 121.514 38.4058C122.715 38.9265 123.717 39.5473 124.518 40.2683C127.161 42.6715 128.263 45.3751 127.822 48.3792C127.422 50.7824 126.16 52.8051 124.037 54.4473C122.235 55.8091 119.912 56.5902 117.068 56.7905C114.184 56.9907 111.781 56.3699 109.858 54.928C106.974 52.6849 105.472 50.0214 105.352 46.9372L107.515 46.8171Z" fill="white"/>
</svg>
