<svg width="257" height="71" viewBox="0 0 257 71" fill="none" xmlns="http://www.w3.org/2000/svg">
<path fill-rule="evenodd" clip-rule="evenodd" d="M23.0576 55.9792C15.5226 55.5784 12.6891 53.0001 8.4312 47.055C4.49012 39.6301 3.51153 35.6329 3.96218 28.801C5.70793 18.6186 7.9014 15.0054 12.4941 9.73546C20.5865 2.16492 25.8017 0.391203 35.6525 0C50.2229 0.266995 54.0664 3.40003 60.3647 8.53475C60.5223 8.66334 60.6816 8.79306 60.8425 8.92417C54.7668 5.28781 51.1135 3.53665 42.5595 3.24507C35.8118 3.73339 32.4729 4.88939 27.1205 9.73546C24.0026 13.5072 22.9715 15.92 22.245 20.6882V21.1108C22.0435 21.0995 21.8404 21.0938 21.6356 21.0938C15.9142 21.0938 11.2752 25.7246 11.2752 31.4377C11.2752 37.15 15.9142 41.7817 21.6356 41.7817C21.8404 41.7817 22.0435 41.7752 22.245 41.7638V42.1873L23.0576 55.9792ZM30.3708 31.4377C30.3708 36.2543 26.4599 40.1591 21.6356 40.1591C16.8113 40.1591 12.9004 36.2543 12.9004 31.4377C12.9004 26.6203 16.8113 22.7164 21.6356 22.7164C26.4599 22.7164 30.3708 26.6203 30.3708 31.4377ZM26.2762 14.1646C30.3911 7.8497 34.0436 6.68867 41.33 5.98001C49.741 6.28456 53.6975 7.43684 59.3985 11.2427C67.3577 17.8431 69.3948 21.5465 71.6692 28.1528C74.1899 38.9348 73.1213 44.3307 68.5351 53.044C61.018 65.5094 56.379 67.2658 48.7757 70.1443C48.5855 70.2165 48.393 70.2887 48.1987 70.3625C54.3914 66.9275 57.7368 64.6438 62.2669 57.3941C65.2166 51.3151 65.8837 47.8501 64.356 40.7992C62.6439 36.217 61.0667 34.119 57.2939 31.1075L56.9266 30.8958C57.038 30.727 57.1444 30.5551 57.2468 30.3774C60.1079 25.4301 58.4104 19.1037 53.4545 16.2477C48.4994 13.3913 42.1629 15.0865 39.3018 20.0335C39.2003 20.2111 39.1036 20.3896 39.0126 20.5697L38.6453 20.358L26.2762 14.1646ZM43.9067 32.7585C39.7293 30.3506 38.2975 25.0164 40.71 20.8447C43.1218 16.6738 48.4645 15.2446 52.6419 17.6529C56.8202 20.061 58.252 25.3953 55.8394 29.5661C53.4277 33.7377 48.085 35.1672 43.9067 32.7585ZM60.2477 55.0024C63.2761 48.3474 64.096 44.609 60.6751 37.8932L49.1186 45.4917L48.7513 45.7034C48.8626 45.8722 48.9691 46.045 49.0714 46.2218C51.9325 51.1691 50.2343 57.4955 45.2792 60.352C40.3241 63.2086 33.9876 61.513 31.1265 56.5658C31.0241 56.3889 30.9282 56.2104 30.8372 56.0303L30.4699 56.2412C25.9715 57.9977 23.3631 58.3125 18.5324 57.502C11.6531 55.2969 8.9805 52.988 5.18308 47.3982C1.15912 39.8565 0.851311 35.8219 0.96759 28.7499C0.934437 28.9544 0.901449 29.1572 0.868783 29.3576C-0.43581 37.3715 -1.23189 42.2611 5.82169 54.9927C11.0867 63.3149 15.2325 66.9373 25.8456 70.1492C32.7135 71.4853 36.9437 71.5754 46.6492 67.9936C52.8004 64.9666 55.7785 62.1223 60.2477 55.0024ZM47.6641 47.0331C45.2515 42.8615 39.9096 41.4328 35.7314 43.8407C31.5531 46.2494 30.1221 51.5828 32.5339 55.7545C34.9464 59.9261 40.2883 61.3548 44.4666 58.9469C48.6449 56.5382 50.0758 51.2048 47.6641 47.0331Z" fill="url(#paint0_linear_65_235)"/>
<path d="M230.479 42.0561L230.496 41.0902L235.305 35.8707C235.933 35.1858 236.439 34.5999 236.824 34.1129C237.208 33.6259 237.489 33.1748 237.666 32.7594C237.847 32.3441 237.941 31.9108 237.949 31.4596C237.959 30.9097 237.838 30.428 237.587 30.0146C237.34 29.5965 236.995 29.2684 236.553 29.0303C236.11 28.7922 235.609 28.6683 235.05 28.6585C234.458 28.6482 233.936 28.766 233.485 29.0121C233.039 29.2582 232.69 29.6 232.438 30.0375C232.186 30.4751 232.055 30.9806 232.045 31.554L230.783 31.532C230.796 30.733 230.992 30.0288 231.37 29.4194C231.752 28.8055 232.265 28.3278 232.911 27.9865C233.561 27.6452 234.293 27.4816 235.106 27.4958C235.909 27.5099 236.621 27.6962 237.24 28.055C237.859 28.409 238.342 28.8853 238.689 29.4837C239.036 30.0822 239.203 30.748 239.19 31.4813C239.181 32.0124 239.078 32.5255 238.881 33.0204C238.689 33.5154 238.362 34.0645 237.9 34.6677C237.438 35.2708 236.8 36.0073 235.986 36.877L232.334 40.812L232.333 40.9037L239.475 41.0283L239.454 42.2128L230.479 42.0561ZM243.782 39.1852L243.801 38.1136L250.417 27.9606L251.207 27.9743L251.175 29.7722L250.59 29.762L245.278 37.9348L245.276 38.0265L253.716 38.1738L253.695 39.3583L243.782 39.1852ZM250.468 42.405L250.528 38.9645L250.537 38.4709L250.72 27.9659L251.975 27.9878L251.723 42.427L250.468 42.405Z" fill="white"/>
<path d="M224.06 24.7919V24.9285V25.2016C224.06 25.4519 224.049 25.7364 224.026 26.055V26.9084V27.2156V27.318H222.797V27.1815V26.9084V26.055C222.82 25.7364 222.831 25.4519 222.831 25.2016V24.9285V24.7919H224.06Z" fill="white"/>
<path d="M201.368 24.7919H202.836C203.132 25.2698 203.348 25.6112 203.485 25.816C203.803 26.3167 204.19 26.9198 204.645 27.6253L207.513 32.1654L210.414 27.6594C210.847 26.9311 211.234 26.3167 211.575 25.816L212.224 24.7919H213.657C213.225 25.4746 212.975 25.8615 212.906 25.9526L212.599 26.4646C212.281 26.9653 211.894 27.5797 211.439 28.308C210.847 29.2411 209.754 30.9365 208.161 33.3944V34.3843C208.184 35.2946 208.196 36.3074 208.196 37.4225V40.4948V41.5189V41.792V41.8944H206.967V41.792V41.5189V40.4948V37.4225C206.967 36.3074 206.955 35.2946 206.933 34.3843V33.565C206.637 33.0871 206.068 32.1768 205.226 30.8341C204.384 29.4914 203.849 28.6494 203.621 28.308C203.166 27.5797 202.779 26.9653 202.461 26.4646L202.119 25.9526L201.368 24.7919Z" fill="#0938DF"/>
<path d="M202.106 24.7919H203.573C203.869 25.2698 204.086 25.6112 204.222 25.816C204.541 26.3167 204.928 26.9198 205.383 27.6253L208.25 32.1654L211.152 27.6594C211.584 26.9311 211.971 26.3167 212.312 25.816L212.961 24.7919H214.395C213.962 25.4746 213.712 25.8615 213.644 25.9526L213.337 26.4646C213.018 26.9653 212.631 27.5797 212.176 28.308C211.584 29.2411 210.492 30.9365 208.899 33.3944V34.3843C208.922 35.2946 208.933 36.3074 208.933 37.4225V40.4948V41.5189V41.792V41.8944H207.704V41.792V41.5189V40.4948V37.4225C207.704 36.3074 207.693 35.2946 207.67 34.3843V33.565C207.374 33.0871 206.805 32.1768 205.963 30.8341C205.121 29.4914 204.586 28.6494 204.359 28.308C203.903 27.5797 203.517 26.9653 203.198 26.4646L202.857 25.9526L202.106 24.7919Z" fill="#0938DF"/>
<path d="M200.476 24.7919H201.944C202.239 25.2698 202.456 25.6112 202.592 25.816C202.911 26.3167 203.298 26.9198 203.753 27.6253L206.62 32.1654L209.522 27.6594C209.954 26.9311 210.341 26.3167 210.683 25.816L211.331 24.7919H212.765C212.333 25.4746 212.082 25.8615 212.014 25.9526L211.707 26.4646C211.388 26.9653 211.001 27.5797 210.546 28.308C209.954 29.2411 208.862 30.9365 207.269 33.3944V34.3843C207.292 35.2946 207.303 36.3074 207.303 37.4225V40.4948V41.5189V41.792V41.8944H206.074V41.792V41.5189V40.4948V37.4225C206.074 36.3074 206.063 35.2946 206.04 34.3843V33.565C205.744 33.0871 205.175 32.1768 204.333 30.8341C203.491 29.4914 202.956 28.6494 202.729 28.308C202.274 27.5797 201.887 26.9653 201.568 26.4646L201.227 25.9526L200.476 24.7919Z" fill="#0938DF"/>
<path d="M188.065 32.6092H188.338H189.123C189.806 32.632 190.568 32.6434 191.41 32.6434H193.732H194.483H194.79V33.3944C194.835 36.1481 194.084 38.3328 192.537 39.9486C190.989 41.5644 188.839 42.3723 186.085 42.3723C183.468 42.3951 181.295 41.5758 179.565 39.9145C177.835 38.2304 176.948 36.0798 176.902 33.4627C176.857 30.9593 177.676 28.877 179.36 27.2156C181.044 25.5316 183.184 24.6782 185.778 24.6554H185.812L190.762 24.6213H190.796L190.762 25.8843H189.874H185.812C183.536 25.9071 181.67 26.6353 180.214 28.0691C178.78 29.5028 178.086 31.3007 178.131 33.4627C178.177 35.7384 178.939 37.5932 180.418 39.0269C181.898 40.4607 183.787 41.1662 186.085 41.1434C188.543 41.1434 190.432 40.4265 191.752 38.9928C192.935 37.6729 193.538 35.966 193.561 33.8723H191.41C190.568 33.8723 189.795 33.8609 189.089 33.8382H188.338H188.065V32.6092Z" fill="white"/>
<path d="M163.348 25.9867V27.4887V31.9265C165.487 31.9037 167.023 31.5282 167.956 30.8C168.616 30.2993 168.946 29.6393 168.946 28.8201C168.946 28.5014 168.855 28.1259 168.673 27.6935C168.423 27.1929 168.081 26.8288 167.649 26.6012C167.148 26.3281 166.363 26.146 165.293 26.055C164.565 26.0095 163.917 25.9867 163.348 25.9867ZM168.775 41.8603C168.48 41.1548 168.172 40.4265 167.854 39.6755C166.761 37.1494 165.76 34.9419 164.85 33.053C164.417 33.1213 163.917 33.1554 163.348 33.1554V33.3602V39.2318V41.1434V41.6896V41.8944H162.119V41.6896V41.1434V39.2318V33.3602V27.4887V25.9867C162.005 25.9867 161.812 25.9981 161.538 26.0208C161.288 26.0208 161.095 26.0208 160.958 26.0208V27.4546V33.3261C160.958 35.4653 160.97 37.4225 160.992 39.1976V41.1093V41.6555V41.8603H159.763V41.6555V41.1093V39.1976C159.741 37.4225 159.729 35.4653 159.729 33.3261V27.4546V25.5088V24.9967V24.7919H160.822C163.006 24.7692 164.52 24.7805 165.362 24.8261C166.636 24.9171 167.592 25.1447 168.229 25.5088C168.912 25.9184 169.424 26.4646 169.765 27.1474C170.038 27.7163 170.175 28.2852 170.175 28.8542C170.175 30.0831 169.686 31.0617 168.707 31.7899C168.115 32.2451 167.308 32.5979 166.283 32.8482L167.99 36.7398L169.049 39.1976L169.902 41.1434C169.993 41.3482 170.061 41.5303 170.107 41.6896L170.209 41.8603H168.775Z" fill="white"/>
<path d="M142.893 24.7919H143.03H143.337H144.498H148.048H151.598H152.759H153.1H153.203V26.0208H153.1H152.759H151.598H148.048H144.498H144.122V26.4987V30.1855V32.6092H144.566H148.082H151.564H152.725H153.032H153.169V33.8381H153.032H152.725H151.564H148.082H144.566H144.122V33.8723V34.8281V34.8964V35.7157V38.2076V40.6313H144.498H148.014H151.53H152.691H153.032H153.134V41.8603H153.032H152.691H151.53H148.014H144.498H143.337H143.03H142.893V40.6313V38.2076V35.7157V35.5791V35.4426V35.1012V33.8723V30.1855V26.4987V26.0208V25.2698V24.9285V24.7919Z" fill="white"/>
<path d="M123.825 27.8984L124.917 29.059C125.008 29.1728 125.122 29.3094 125.259 29.4687C125.6 29.8328 126.01 30.2879 126.488 30.8341C127.603 32.0858 128.843 33.4626 130.208 34.9647C131.551 36.4667 132.78 37.8435 133.895 39.0952C134.373 39.6414 134.783 40.0965 135.124 40.4607C135.261 40.62 135.374 40.7451 135.465 40.8362L136.455 41.8603H134.714L134.544 41.6555C134.453 41.5644 134.339 41.4393 134.202 41.28C133.861 40.9158 133.451 40.4607 132.973 39.9145C131.858 38.6628 130.629 37.286 129.287 35.7839C127.921 34.2819 126.681 32.9051 125.566 31.6534L125.054 31.0731V31.551V35.7498V39.9486V41.3482V41.7237V41.8603H123.825V41.7237V41.3482V39.9486V35.7498V31.551V30.1855V29.7759V29.6393V27.8984ZM136.421 24.7919V24.8943V25.2698V26.6353V30.6976C136.421 31.4713 136.41 32.1996 136.387 32.8823C136.387 33.5423 136.387 34.1681 136.387 34.7598V36.0912V36.4667V38.9587V39.6073L134.544 37.4566C134.453 37.3656 134.339 37.2404 134.202 37.0811L133.008 35.7157C131.87 34.464 130.629 33.0871 129.287 31.5851C127.944 30.0604 126.704 28.6721 125.566 27.4205C125.088 26.897 124.678 26.4419 124.337 26.055C124.2 25.9184 124.087 25.7933 123.996 25.6795L123.825 25.4747V23.6996L124.917 24.8602C125.008 24.974 125.122 25.0992 125.259 25.2357C125.6 25.6226 126.01 26.0777 126.488 26.6012C127.603 27.8529 128.843 29.2411 130.208 30.7658C131.551 32.2679 132.78 33.6447 133.895 34.8964C134.373 35.4198 134.783 35.875 135.124 36.2619L135.158 36.296V36.0912V34.7598C135.158 34.1681 135.158 33.5423 135.158 32.8823C135.181 32.1996 135.192 31.4713 135.192 30.6976V26.6353V25.2698V24.8943V24.7919H136.421Z" fill="white"/>
<path d="M105.059 24.7919H106.527C106.822 25.2698 107.039 25.6112 107.175 25.816C107.494 26.3167 107.881 26.9198 108.336 27.6253L111.203 32.1654L114.105 27.6594C114.537 26.9311 114.924 26.3167 115.266 25.816L115.914 24.7919H117.348C116.916 25.4746 116.665 25.8615 116.597 25.9526L116.29 26.4646C115.971 26.9653 115.584 27.5797 115.129 28.308C114.537 29.2411 113.445 30.9365 111.852 33.3944V34.3843C111.875 35.2946 111.886 36.3074 111.886 37.4225V40.4948V41.5189V41.792V41.8944H110.657V41.792V41.5189V40.4948V37.4225C110.657 36.3074 110.646 35.2946 110.623 34.3843V33.565C110.327 33.0871 109.758 32.1768 108.916 30.8341C108.074 29.4914 107.539 28.6494 107.312 28.308C106.857 27.5797 106.47 26.9653 106.151 26.4646L105.81 25.9526L105.059 24.7919Z" fill="#EA1B1B"/>
<path d="M105.942 24.7919H107.409C107.705 25.2698 107.922 25.6112 108.058 25.816C108.377 26.3167 108.764 26.9198 109.219 27.6253L112.086 32.1654L114.988 27.6594C115.42 26.9311 115.807 26.3167 116.148 25.816L116.797 24.7919H118.231C117.798 25.4746 117.548 25.8615 117.48 25.9526L117.173 26.4646C116.854 26.9653 116.467 27.5797 116.012 28.308C115.42 29.2411 114.328 30.9365 112.735 33.3944V34.3843C112.758 35.2946 112.769 36.3074 112.769 37.4225V40.4948V41.5189V41.792V41.8944H111.54V41.792V41.5189V40.4948V37.4225C111.54 36.3074 111.529 35.2946 111.506 34.3843V33.565C111.21 33.0871 110.641 32.1768 109.799 30.8341C108.957 29.4914 108.422 28.6494 108.195 28.308C107.739 27.5797 107.353 26.9653 107.034 26.4646L106.693 25.9526L105.942 24.7919Z" fill="#EA1B1B"/>
<path d="M104.312 24.7919H105.78C106.075 25.2698 106.292 25.6112 106.428 25.816C106.747 26.3167 107.134 26.9198 107.589 27.6253L110.456 32.1654L113.358 27.6594C113.79 26.9311 114.177 26.3167 114.519 25.816L115.167 24.7919H116.601C116.169 25.4746 115.918 25.8615 115.85 25.9526L115.543 26.4646C115.224 26.9653 114.837 27.5797 114.382 28.308C113.79 29.2411 112.698 30.9365 111.105 33.3944V34.3843C111.128 35.2946 111.139 36.3074 111.139 37.4225V40.4948V41.5189V41.792V41.8944H109.91V41.792V41.5189V40.4948V37.4225C109.91 36.3074 109.899 35.2946 109.876 34.3843V33.565C109.58 33.0871 109.011 32.1768 108.169 30.8341C107.327 29.4914 106.792 28.6494 106.565 28.308C106.11 27.5797 105.723 26.9653 105.404 26.4646L105.063 25.9526L104.312 24.7919Z" fill="#EA1B1B"/>
<path d="M97.2892 30.049C97.2209 28.638 96.5268 27.4318 95.2069 26.4305C94.3648 25.8388 93.2611 25.5771 91.8956 25.6453C90.5757 25.7591 89.4833 26.1346 88.6185 26.7718C87.6854 27.4773 87.1506 28.3763 87.0141 29.4686C86.832 30.7658 87.3213 31.9151 88.4819 32.9164C88.8005 33.2351 89.2329 33.4854 89.7791 33.6675C90.0977 33.7812 90.6212 33.9292 91.3494 34.1112C91.4177 34.1112 91.486 34.1226 91.5542 34.1454C92.4418 34.3502 93.1359 34.5436 93.6366 34.7257C94.4559 35.0898 95.1045 35.5677 95.5824 36.1594L94.6265 36.9104C94.2397 36.478 93.7617 36.1367 93.1928 35.8863C92.897 35.7726 92.2711 35.5905 91.3153 35.3402C91.2698 35.3402 91.2243 35.3288 91.1787 35.306H91.1105C90.2684 35.124 89.6881 34.9647 89.3695 34.8281C88.6868 34.5778 88.1178 34.2478 87.6627 33.8381C86.1606 32.5409 85.5348 31.0276 85.7851 29.298C85.99 27.8642 86.6841 26.6922 87.8675 25.7819C88.9826 24.9626 90.2912 24.5188 91.7932 24.4505C93.5 24.3368 94.8769 24.6667 95.9237 25.4405C97.5851 26.6694 98.4499 28.1828 98.5181 29.9807L97.2892 30.049ZM86.2289 36.9446C86.2744 38.3328 86.9685 39.539 88.3113 40.5631C89.1078 41.1775 90.2002 41.4506 91.5884 41.3823C92.9311 41.3141 94.0235 40.95 94.8655 40.29C95.7986 39.6072 96.3561 38.7311 96.5382 37.6614C96.7658 36.387 96.2765 35.2036 95.0703 34.1112C94.729 33.8154 94.2852 33.5537 93.739 33.3261C93.3976 33.1895 92.8628 33.0416 92.1346 32.8823C92.0891 32.8823 92.0322 32.8709 91.9639 32.8482C91.0991 32.6661 90.405 32.4727 89.8815 32.2679C89.1305 31.9492 88.4933 31.4827 87.9699 30.8682L88.9599 30.0831C89.2557 30.4927 89.7222 30.8455 90.3595 31.1413C90.7008 31.2779 91.3267 31.4486 92.237 31.6534C92.3053 31.6761 92.3508 31.6875 92.3735 31.6875C92.988 31.8241 93.5911 31.9834 94.1828 32.1654C94.8655 32.4613 95.4344 32.814 95.8896 33.2237C97.3916 34.5891 98.0175 36.1253 97.7671 37.8321C97.5395 39.1976 96.8227 40.3469 95.6165 41.2799C94.5924 42.0537 93.2725 42.4975 91.6567 42.6113C90.0181 42.7251 88.6526 42.3723 87.5603 41.553C85.9217 40.2786 85.0683 38.7652 85 37.0129L86.2289 36.9446Z" fill="white"/>
<defs>
<linearGradient id="paint0_linear_65_235" x1="56.8803" y1="64.9034" x2="12.2728" y2="10.8828" gradientUnits="userSpaceOnUse">
<stop stop-color="#FF0000"/>
<stop offset="0.223958" stop-color="#D0086F"/>
<stop offset="0.484375" stop-color="#A30FD8"/>
<stop offset="0.666667" stop-color="#6308E0"/>
<stop offset="0.895833" stop-color="#2001E9"/>
<stop offset="1" stop-color="#2001E9"/>
</linearGradient>
</defs>
</svg>
